<?xml version="1.0" encoding="UTF-8"?>
<!-- Created with Inkscape (http://www.inkscape.org/) -->
<svg width="269.75mm" height="53.402mm" version="1.1" viewBox="0 0 269.75 53.402" xmlns="http://www.w3.org/2000/svg" xmlns:cc="http://creativecommons.org/ns#" xmlns:dc="http://purl.org/dc/elements/1.1/" xmlns:rdf="http://www.w3.org/1999/02/22-rdf-syntax-ns#">
 <title>SYIGEN logo</title>
 <g transform="translate(-3.4516 -78.299)">
  <g transform="matrix(1 0 0 1 0 -.00057915)" fill="#5a5a5a" stroke-width=".26458" aria-label="SYIGEN">
   <path d="m19.834 123.7h-8.3821l1.4074-6.096h25.58c1.8203 0 3.1115-0.3175 3.8735-0.95251 0.762-0.67733 1.143-1.7992 1.143-3.3655v-1.27c0-1.4817-0.3175-2.54-0.95251-3.175-0.59267-0.635-1.9473-0.9525-4.064-0.9525h-14.732c-4.2757 0-7.3872-0.78317-9.3346-2.3495-1.9473-1.6087-2.921-4.2122-2.921-7.8105v-1.016c0-1.8627 0.33867-3.5772 1.016-5.1435 0.71967-1.5663 1.9262-2.8152 3.6195-3.7465 1.6933-0.97367 4.0217-1.4605 6.985-1.4605h17.272l9.6521-1e-6 -1.3928 6.0328-23.753-2.9e-4c-1.9473 0-3.2597 0.40217-3.937 1.2065-0.67734 0.762-1.0372 1.7357-1.0795 2.921v1.0795c0 1.397 0.381 2.4553 1.143 3.175 0.80434 0.67734 2.1167 1.016 3.937 1.016h14.097c2.7094 0 5.0165 0.27517 6.9215 0.8255 1.905 0.55034 3.3655 1.5664 4.3815 3.048 1.016 1.4394 1.524 3.5772 1.524 6.4135v1.016c0 3.175-0.8255 5.7362-2.4765 7.6836-1.6087 1.9474-4.4239 2.921-8.4456 2.921z"/>
   <path d="m74.761 123.7v-15.494l-18.479-21.844h10.16l9.3981 11.875 2.921 3.937h0.635l2.921-3.937 9.3981-11.875h10.16l-18.733 22.098v15.24z"/>
   <path d="m107.59 123.7v-37.338h8.382v37.338z"/>
   <path d="m137.12 123.7c-3.0057 0-5.3552-0.42334-7.0486-1.27-1.6933-0.84667-2.8787-2.1167-3.556-3.81-0.67734-1.6933-1.016-3.7888-1.016-6.2865v-14.161c0-4.064 0.91017-7.0485 2.7305-8.9536 1.8204-1.9473 4.7837-2.921 8.8901-2.921h19.114s9.3218 0.0079 9.3396 0.0635l-1.3928 6.0328h-6.5837s-8.6656-2.91e-4 -15.397-2.91e-4h-3.2385c-3.3867 0-5.08 1.5028-5.08 4.5085v16.193c0 1.4393 0.35983 2.5612 1.0795 3.3655 0.76201 0.76201 2.0955 1.143 4.0005 1.143h16.054s2.2783-0.047 3.0117-0.7802c0.70143-0.70136 0.74657-2.8806 0.74657-2.8806v-10.754h8.3186v14.415c0 0.76965 0 1.4421-0.0167 2.0297-0.0489 1.7157-0.13857 2.5209-0.99168 3.2808-1.0797 0.96175-2.0313 0.72451-4.2692 0.7685-0.86436 0.017-1.6674 0.017-3.041 0.017z"/>
   <path d="m176.62 123.7v-37.338h39.497v6.096h-31.115v8.763h23.749v6.2865h-23.749v10.097h31.115v6.096h-4.826z"/>
   <path d="m223.54 123.7c1e-5 -12.446-1e-5 -24.892 1e-5 -37.338l8.509 1e-6 24.067 26.035h0.6985v-26.035h8.3821v37.338h-8.0646l-22.098-22.987-2.4765-2.9845h-0.635v25.972z"/>
  </g>
 </g>
 <metadata>
  <rdf:RDF>
   <cc:Work rdf:about="">
    <dc:title>SYIGEN logo</dc:title>
   </cc:Work>
  </rdf:RDF>
 </metadata>
</svg>
